# xmcd
#
# Track frame offsets:
#	150
#	90152
#	124723
#	168042
#
# Disc length: 3053 seconds
#
# Revision: 1
# Processed by: cddbd v1.5.2PL0 Copyright (c) Steve Scherf et al.
# Submitted via: audiograbber 1.83.01
#
DISCID=1e0beb04
DTITLE=Grateful Dead - 70-01-17 Oregon State University, Corvallis OR
DYEAR=1900
DGENRE=
TTITLE0=Dark Star
TTITLE1=St Stephen
TTITLE2=The Eleven
TTITLE3=Turn On Your Lovelight
EXTD=
EXTT0=
EXTT1=
EXTT2=
EXTT3=
PLAYORDER=
